<svg width="128" height="128" viewBox="0 0 128 128" fill="none" xmlns="http://www.w3.org/2000/svg">
<path d="M6.6014 63.8983L43.6739 109.824C44.2721 110.411 44.8687 111 46.0636 111H81.3445C81.9412 111 82.5378 110.411 81.9412 109.824L7.19486 17.3868C6.59664 16.7981 6 16.7981 6 17.974V62.1353C6.00476 62.724 6.00476 63.3111 6.6014 63.8983ZM122 62.1353V17.974C122 16.7981 120.805 16.7981 120.208 17.3868L71.189 78.0071V78.6317C71.189 79.2189 71.189 79.2189 71.7856 79.2189H107.627C108.261 79.2189 109.456 78.6317 110.053 78.0071L121.403 63.8983C121.403 63.3111 122 62.724 122 62.1353Z" fill="white"/>
</svg>
