<svg width="1920" height="276" viewBox="0 0 1920 276" fill="none" xmlns="http://www.w3.org/2000/svg">
<g clip-path="url(#clip0_3_30)">
<path d="M1711.62 53.4889H1780.31L1780.53 264.067C1780.53 266.775 1782.73 269.002 1785.47 269.002L1824.8 268.973C1827.54 268.973 1829.74 266.775 1829.74 264.038L1829.5 53.4889H1915.66C1918.19 53.4889 1919.64 50.5335 1918.02 48.5535L1888.53 11.6179C1886.07 8.51694 1882.33 6.72621 1878.38 6.71163H1711.62C1708.88 6.71163 1706.68 8.91003 1706.68 11.6471V48.5826C1706.68 51.2615 1708.88 53.4889 1711.62 53.4889V53.4889ZM53.5631 264.096L255.087 11.6471C256.675 9.66707 255.248 6.71163 252.714 6.71163H202.325C198.379 6.71163 194.621 8.53147 192.16 11.6179L49.1942 190.691V11.6179C49.1942 8.88088 46.9952 6.68253 44.2718 6.68253H4.92232C2.19902 6.68253 0 8.88088 0 11.6179V264.067C0 266.804 2.19902 269.002 4.92232 269.002H43.4126C47.3592 269.002 51.0874 267.197 53.5631 264.096V264.096ZM195.641 264.096L264.961 177.267L334.282 264.096C336.743 267.197 340.5 269.002 344.461 269.002H382.937C385.675 269.002 387.874 266.804 387.874 264.067V11.6179C387.874 8.91003 385.675 6.68253 382.937 6.68253H350.665C342.757 6.68253 335.272 10.2785 330.32 16.466L132.699 264.038C131.112 266.018 132.539 268.973 135.073 268.973H185.461C189.437 269.002 193.165 267.197 195.641 264.096V264.096ZM338.65 79.651V195.961L292.223 137.813L338.65 79.651ZM1463.84 264.038L1262.33 11.5888C1259.87 8.50237 1256.13 6.6971 1252.18 6.68253H1213.66C1210.94 6.68253 1208.74 8.88088 1208.74 11.6179V264.067C1208.74 266.804 1210.94 269.002 1213.66 269.002H1252.15C1256.1 269.002 1259.85 267.197 1262.3 264.096L1331.62 177.267L1400.93 264.096C1403.4 267.197 1407.13 269.002 1411.09 269.002H1461.48C1464.01 269.002 1465.43 266.047 1463.84 264.038ZM1304.32 137.813L1257.87 195.99V79.651L1304.32 137.813ZM749.767 0.14563C673.806 0.14563 612.233 61.7874 612.233 137.842C612.233 213.897 673.806 275.554 749.767 275.554C825.743 275.554 887.316 213.897 887.316 137.842C887.345 61.7874 825.743 0.14563 749.767 0.14563V0.14563ZM749.767 228.747C700.966 228.747 661.427 188.041 661.427 137.842C661.427 87.6438 700.966 46.9084 749.767 46.9084C798.583 46.9084 838.121 87.6146 838.121 137.842C838.151 188.041 798.583 228.747 749.767 228.747ZM1623.32 11.6179V190.691L1480.35 11.5888C1477.88 8.50237 1474.15 6.6971 1470.19 6.68253H1431.66C1428.95 6.68253 1426.73 8.88088 1426.73 11.6179V133.271C1426.73 136.226 1427.72 139.094 1429.59 141.409L1470.52 192.7C1472.33 194.956 1475.96 193.675 1475.96 190.807V84.9358L1618.95 264.096C1621.41 267.197 1625.16 269.002 1629.1 269.002H1667.59C1670.32 269.002 1672.51 266.804 1672.51 264.067V11.6179C1672.51 8.91003 1670.32 6.68253 1667.59 6.68253H1628.24C1625.52 6.68253 1623.32 8.91003 1623.32 11.6179V11.6179ZM1142.59 66.3298V11.6179C1142.59 8.88088 1140.39 6.68253 1137.67 6.68253H936.291C933.568 6.68253 931.369 8.88088 931.369 11.6179V264.067C931.369 266.804 933.568 269.002 936.291 269.002H975.641C978.364 269.002 980.563 266.804 980.563 264.067V53.5181H1093.4L1017.23 148.965C1015.82 150.741 1015.82 153.304 1017.23 155.124L1104.25 264.125C1106.72 267.226 1110.45 269.031 1114.41 269.031H1164.8C1167.33 269.031 1168.75 266.076 1167.16 264.096L1077.73 152.081L1139.72 74.5263C1141.56 72.1533 1142.59 69.2852 1142.59 66.3298V66.3298ZM451.864 269.002H568.631C572.578 269.002 576.335 267.197 578.782 264.096L608.272 227.131C609.859 225.151 608.447 222.196 605.913 222.196H496.136V11.6179C496.136 8.88088 493.937 6.68253 491.214 6.68253H451.864C449.141 6.68253 446.942 8.88088 446.942 11.6179V264.067C446.942 266.775 449.17 269.002 451.864 269.002" fill="white"/>
</g>
<defs>
<clipPath id="clip0_3_30">
<rect width="1920" height="275.801" fill="white"/>
</clipPath>
</defs>
</svg>
